<svg xmlns="http://www.w3.org/2000/svg" viewBox="0 0 58 47"><defs><style>.cls-1{fill:#fff;fill-rule:evenodd;}</style></defs><title>アートボード 3 のコピー 5</title><g id="pc"><path class="cls-1" d="M56.52,47H48.2c0-7,0-13.83,4.08-20-1.5-.16-2.66-.72-2.73-2.39,0-1.14.65-1.82,2.3-2.38C46.81,15.58,42.63,8.52,40.72,0h15.8Z"/><path class="cls-1" d="M1.86,0H17.58a34.58,34.58,0,0,1-.9,3.84,58.76,58.76,0,0,1-10.12,18,3.53,3.53,0,0,0-.21.36c1.5.28,2.57,1,2.45,2.67-.08,1.19-.93,1.81-2.7,2.1,4.05,6.07,4,12.94,4.09,20H1.86Z"/><path class="cls-1" d="M17.08,47c-1.32,0-2.63,0-3.94,0-.67,0-1-.17-1-.9.05-1.06,0-2.13,0-3.19a6.25,6.25,0,0,1,2.1-4.4,4,4,0,0,1,5.9.07,6.53,6.53,0,0,1,2.05,4.75c0,.89-.05,1.78,0,2.66s-.28,1-1.05,1C19.85,47,18.46,47,17.08,47Z"/><path class="cls-1" d="M34.22,46.93h-10c-.12-3-.52-6,2-8.39a4,4,0,0,1,5.9,0,6.47,6.47,0,0,1,2.08,4.84Z"/><path class="cls-1" d="M46.26,46.92H36a39.35,39.35,0,0,1,.46-5.5,5.27,5.27,0,0,1,4.68-4.17,5.37,5.37,0,0,1,4.78,4.34A36.93,36.93,0,0,1,46.26,46.92Z"/><path class="cls-1" d="M21.15,31.09a3.93,3.93,0,0,1-4,3.89,3.92,3.92,0,1,1,4-3.89Z"/><path class="cls-1" d="M41.16,35a3.92,3.92,0,1,1,3.94-3.93A4,4,0,0,1,41.16,35Z"/><path class="cls-1" d="M29.14,35a3.92,3.92,0,1,1,4-3.87A3.94,3.94,0,0,1,29.14,35Z"/></g></svg>