<svg xmlns="http://www.w3.org/2000/svg" viewBox="0 0 58 47"><defs><style>.cls-1{fill:#fff;fill-rule:evenodd;}</style></defs><title>アートボード 3 のコピー</title><g id="pc"><path class="cls-1" d="M18.18,37.48c-2.48,0-4.85,0-7.23,0-3.26,0-4.86-1.61-4.87-4.89s0-6.5,0-9.75a4.18,4.18,0,0,1,6.38-3.63,4.12,4.12,0,0,1,2,3.65c0,2.61,0,5.23,0,7.84V32h5.36c2.7,0,3.65,1,3.57,3.67s-.15,5.15-.24,7.73c-.06,1.79-.81,2.63-2.33,2.64s-2.17-.85-2.27-2.59C18.47,41.51,18.32,39.55,18.18,37.48Z"/><path class="cls-1" d="M40.46,37.63c-.13,2-.27,4-.4,6-.1,1.52-.92,2.39-2.25,2.38s-2.27-.81-2.34-2.4c-.11-2.8-.19-5.6-.26-8.4a2.8,2.8,0,0,1,3-3.23c1.53,0,3.06,0,4.59,0h1.35v-1.3c0-2.58,0-5.15,0-7.73a4.21,4.21,0,1,1,8.42,0q0,5.08,0,10.19a4.19,4.19,0,0,1-4.4,4.35c-2.45,0-4.91,0-7.37,0A1.74,1.74,0,0,0,40.46,37.63Z"/><path class="cls-1" d="M18,30.24a5.07,5.07,0,0,1,.7-3.72c.91-1.41,1.63-2.93,2.51-4.36a1.49,1.49,0,0,1,1.09-.64c4.92-.05,9.84,0,14.76-.05a1.31,1.31,0,0,1,1.31.79c.94,1.74,2,3.42,2.84,5.2a10.94,10.94,0,0,1,.49,2.78Z"/><path class="cls-1" d="M.78,26.4H3.94c0,1.51,0,3,0,4.47a21.42,21.42,0,0,0,.17,3.68A6.64,6.64,0,0,0,10.71,40c1.45,0,2.9,0,4.42,0v3.07c-5.69.62-10,0-12.9-4.79A10.47,10.47,0,0,1,.84,34C.61,31.52.78,29,.78,26.4Z"/><path class="cls-1" d="M43.49,43.15V40h3.68c4.82,0,7.53-2.73,7.55-7.58v-6h3.22c-.19,3.47.6,7-.74,10.38A9.4,9.4,0,0,1,49,43.12C47.19,43.29,45.4,43.15,43.49,43.15Z"/><path class="cls-1" d="M34.84,19H24.46a11.48,11.48,0,0,1,1.35-6.43,4.46,4.46,0,0,1,7.82.07A11.41,11.41,0,0,1,34.84,19Z"/><path class="cls-1" d="M29.7-.16a4.49,4.49,0,0,1,4.55,4.51A4.68,4.68,0,0,1,29.63,9a4.75,4.75,0,0,1-4.52-4.66A4.56,4.56,0,0,1,29.7-.16Z"/><path class="cls-1" d="M10.36,8.33a4.2,4.2,0,0,1,4.22,4.38,4.17,4.17,0,0,1-4.39,4.2A4.17,4.17,0,0,1,6,12.6,4.2,4.2,0,0,1,10.36,8.33Z"/><path class="cls-1" d="M48.38,8.33a4.2,4.2,0,0,1,4.26,4.35,4.28,4.28,0,0,1-8.56,0A4.2,4.2,0,0,1,48.38,8.33Z"/><path class="cls-1" d="M30.56,42.22H28.11V32.73h2.45Z"/></g></svg>