<svg xmlns="http://www.w3.org/2000/svg" viewBox="0 0 58 47"><defs><style>.cls-1{fill:#fff;fill-rule:evenodd;}</style></defs><title>アートボード 3 のコピー 2</title><g id="pc"><path class="cls-1" d="M31.64,0a20.88,20.88,0,0,1,3.8,1.65A6.44,6.44,0,0,1,38.12,6.5H32V8.4h6.15v3.27H32.05a2.84,2.84,0,0,0-.11.37c-.12,1.53-.12,1.53,1.39,1.53h4.82v3.2H32V18.7h6.16V22H32v1.84h6.14a9.08,9.08,0,0,1-3.83,7.53,8.47,8.47,0,0,1-9.73.7,9.29,9.29,0,0,1-4.93-8.17h6.15V22H19.64v-3.3H25.8v-1.9H19.62V13.57h4.73c1.69,0,1.71,0,1.37-1.9H19.6V8.43h6.19V6.57H19.66A6.85,6.85,0,0,1,23.22,1a18.86,18.86,0,0,1,2.91-1Z"/><path class="cls-1" d="M26.87,47c0-2.26.06-4.52,0-6.78,0-.19-.4-.49-.65-.54a15.7,15.7,0,0,1-11.85-9.4,18.77,18.77,0,0,1-1.19-9.65h3.49c0,1.25-.06,2.46,0,3.68A12.05,12.05,0,0,0,24.1,35.25c6.93,3.22,14.72-1.2,16.5-8.06a27.07,27.07,0,0,0,.48-4.53c.05-.66,0-1.33,0-2H44.6c.46,5.16-.4,9.9-3.91,13.89a15.69,15.69,0,0,1-9.08,5.13c-.38.08-.8.07-.79.66,0,2.23.06,4.46.08,6.69Z"/></g></svg>