<svg xmlns="http://www.w3.org/2000/svg" viewBox="0 0 58 47"><defs><style>.cls-1{fill:#fff;fill-rule:evenodd;}</style></defs><title>アートボード 3</title><g id="pc"><path class="cls-1" d="M18.22,39.45c-3.25.53-4.41-.67-3.89-3.85-2,.41-3,.16-3.64-1-1.25-2.27.67-3.35,1.93-4.81-.37-.38-.77-.74-1.09-1.14a29,29,0,0,1-2.33-3c-1-1.67-1-1.71.65-3.08A11.3,11.3,0,0,0,13.49,28a1.4,1.4,0,0,0,1,.36c2.55-.25,3.73,1,3.25,3.49a1.17,1.17,0,0,0,0,.32c3.45-.37,4.17,1,3.88,3.82,3.22-.12,4.18.81,3.78,3.61A6.28,6.28,0,0,1,27.48,39a3.41,3.41,0,0,1,2,.93c1,1,.83,2.07-.21,3.68.77,1.22,1.77,1.57,2.77,1s1.18-1.67.54-2.92c-.2-.38,0-.94,0-1.42a6.24,6.24,0,0,1,1.39.29c.37.17.62.59,1,.81a1.9,1.9,0,0,0,2.71-2.47c-.07-.14-.22-.26-.24-.39,0-.46,0-.92-.06-1.38.45,0,.91,0,1.35.09a6,6,0,0,0,1.85.32c1.24-.28,1.59-1.64,1-2.91A4.62,4.62,0,0,1,41.42,33a5,5,0,0,1,1.43.24,2,2,0,0,0,2.61-.39,1.9,1.9,0,0,0-.24-2.62c-2.14-2.12-4.34-4.19-6.49-6.29-1.36-1.33-2.66-2.72-4-4a1.89,1.89,0,0,0-1.4-.46,13,13,0,0,1-6.2,0,1.32,1.32,0,0,0-1,.37c-1.18,1.12-2.3,2.3-3.47,3.44a2.65,2.65,0,0,1-3.91.16,2.61,2.61,0,0,1,.17-3.84q3.77-3.8,7.57-7.55a24,24,0,0,1,1.94-1.59c-1.93-.92-3.86-.8-5.93-.63,1-1.45,2.08-2.39,3.84-1.83.25.08.56,0,.8.11a16.16,16.16,0,0,0,7.7,1.4,2.14,2.14,0,0,1,1.39.68Q41.63,15.62,47,21.05a1.84,1.84,0,0,1,.45,1.51,18,18,0,0,1-1.64,4A1.33,1.33,0,0,0,46,28.52a6.28,6.28,0,0,1,1.58,2.7c.42,2.3-.9,3.67-3.82,4.34a3.92,3.92,0,0,1-3.87,3.93C38.8,42.84,38.1,43.4,35,43.42c-2,3.77-3.72,4.16-7.23,1.6-1.07,1.18-2.33,2-4,1.1-1.36-.77-1.44-2.07-1-3.61-1.24,1-2.47,1.33-3.71.47S17.7,40.9,18.22,39.45Z"/><path class="cls-1" d="M36.18,6.66,42.35.48,58,16.15,51.82,22.3ZM53.38,16a1.7,1.7,0,0,0-1.69-1.7A1.78,1.78,0,0,0,50,16a1.84,1.84,0,0,0,1.77,1.78A1.79,1.79,0,0,0,53.38,16Z"/><path class="cls-1" d="M5.63,22.94-.49,16.8,15.26,1.05l6.13,6.12Zm.3-8.2a1.69,1.69,0,1,0,0,3.37A1.73,1.73,0,0,0,7.66,16.4,1.7,1.7,0,0,0,5.93,14.74Z"/><path class="cls-1" d="M53.38,16a1.79,1.79,0,0,1-1.65,1.76A1.84,1.84,0,0,1,50,16a1.78,1.78,0,0,1,1.73-1.68A1.7,1.7,0,0,1,53.38,16Z"/><path class="cls-1" d="M5.93,14.74A1.7,1.7,0,0,1,7.66,16.4,1.73,1.73,0,0,1,6,18.11a1.69,1.69,0,1,1,0-3.37Z"/></g></svg>