<svg xmlns="http://www.w3.org/2000/svg" viewBox="0 0 58 47"><defs><style>.cls-1{fill:#fff;fill-rule:evenodd;}</style></defs><title>アートボード 3 のコピー 4</title><g id="pc"><path class="cls-1" d="M4.42,43.18A10.73,10.73,0,0,0,5,42.08Q9.52,32.26,14,22.41a1.26,1.26,0,0,1,1.41-.91,20.35,20.35,0,0,0,2.59,0c.66,0,.91.25.85.88a2.54,2.54,0,0,0,0,.39c0,1.67,0,1.65-1.69,1.74-.33,0-.82.14-.93.36-1,2.21-2,4.45-3.07,6.73.3.17.52.32.75.42q6.37,2.68,12.75,5.37a.91.91,0,0,0,1.28-.26q4.72-6,9.48-11.93a5.66,5.66,0,0,0,.37-.65c-.5,0-.88-.06-1.26-.06-3.25,0-6.5,0-9.76,0-.73,0-1-.2-1-.95,0-2,0-2,2.06-2,5.54,0,11.09,0,16.63,0a1.39,1.39,0,0,1,1.48,1c2.86,6.39,5.77,12.76,8.67,19.13a11.37,11.37,0,0,0,.59,1v.79c-.39,0-.79.07-1.18.07H5.8c-.46,0-.92,0-1.38-.07ZM50.8,40.49c-.79-1.72-1.46-3.22-2.18-4.7-.1-.2-.41-.32-.65-.43-3.82-1.78-7.65-3.54-11.46-5.34a1,1,0,0,0-1.41.35c-1.88,2.41-3.8,4.79-5.7,7.18-.17.21-.3.47-.5.78,1.21.52,2.32,1,3.39,1.47a7.51,7.51,0,0,0,3.46.7c4.55,0,9.1,0,13.65,0Zm-21.45-.08c0-.07,0-.14,0-.21a2.41,2.41,0,0,0-.39-.26c-5.28-2.24-10.56-4.47-15.83-6.73-.61-.26-.82,0-1,.5-.74,1.7-1.52,3.38-2.28,5.07-.22.5-.41,1-.67,1.63Zm17.94-6.92.2-.21c-.12-.29-.22-.59-.36-.88-.87-1.93-1.88-3.81-2.57-5.8-.6-1.73-1.56-2.45-3.34-2.12-.51.1-1.24-.06-1.51.23-1.09,1.17-2,2.47-3.11,3.83Z"/><path class="cls-1" d="M4.42,43.38c.46,0,.92.07,1.38.07H54c.39,0,.79,0,1.18-.07v3.78H4.42Z"/><path class="cls-1" d="M34.87-.28c2.52,0,5.05,0,7.57,0A4.89,4.89,0,0,1,43.7.07a6.35,6.35,0,0,1-.47,1.24c-1,1.51-2,3-3,4.47a1.18,1.18,0,0,0,0,1.53c1.07,1.56,2.12,3.14,3.14,4.72.18.28.37.74.25,1s-.59.37-.92.37c-5.24,0-10.48,0-15.73,0-.68,0-.93-.23-.93-.92q0-5.93,0-11.85c0-.71.28-.9,1-.9C29.63-.26,32.25-.28,34.87-.28Z"/><path class="cls-1" d="M24.06-.28V29c-1,0-2,0-3,0-.19,0-.38-.33-.51-.55a1.14,1.14,0,0,1,0-.49c0-9.06,0-18.11,0-27.16,0-.83.24-1.14,1.07-1.07S23.19-.28,24.06-.28Z"/></g></svg>