<svg xmlns="http://www.w3.org/2000/svg" viewBox="0 0 58 47"><defs><style>.cls-1{fill:#fff;fill-rule:evenodd;}</style></defs><title>アートボード 3 のコピー 3</title><g id="pc"><path class="cls-1" d="M10.48,47a11.36,11.36,0,0,1-2.12-1,4.44,4.44,0,0,1-.44-6.84c7-6.69,13.91-13.4,20.94-20a7.67,7.67,0,0,0,2.44-6.1c0-2.9.33-5.73,2.27-8A13.84,13.84,0,0,1,40.19.7c.31-.09.61-.24.91-.36h.55c1.7,1.44,1.79,1,.35,3-1,1.3-1.93,2.58-2.89,3.87a2.47,2.47,0,0,0,.42,3.46,26.53,26.53,0,0,0,2.16,1.81,4.05,4.05,0,0,0,1.55.51c1,.18,1.65-.4,2.23-1.2,1.06-1.48,2.19-2.91,3.34-4.32.3-.36,1-.89,1.12-.79a2.88,2.88,0,0,1,1.3,1.38,9.75,9.75,0,0,1-1.57,8.46,10.65,10.65,0,0,1-9,4.77,11.45,11.45,0,0,0-3,.4,5.56,5.56,0,0,0-2.38,1.37q-10.07,10.78-20,21.66A7,7,0,0,1,11.57,47Z"/><path class="cls-1" d="M38.51,25.76s0,0,0,0c3.78,3.77,7.62,7.49,11.32,11.34a5.14,5.14,0,0,1-.24,7.16,5.19,5.19,0,0,1-7.1.17c-2.06-1.87-4-3.89-6-5.86-1.82-1.81-3.63-3.65-5.38-5.41Z"/><path class="cls-1" d="M26,17.3c-1.05,1.19-2,2.25-3,3.39-.34-.31-.58-.52-.81-.75-2-2-4-3.92-5.91-5.93a3.4,3.4,0,0,0-2.32-1.27A4.81,4.81,0,0,1,9.54,9.6,50.08,50.08,0,0,0,7,5.27l3.75-3.68c2.19,1.34,4.37,2.64,6.53,4a1,1,0,0,1,.34.69C17.8,9,19.26,11,21.27,12.76,23,14.23,24.5,15.87,26,17.3Z"/></g></svg>